<svg width="148.000000" height="27.000000" viewBox="0 0 148 27" fill="none" xmlns="http://www.w3.org/2000/svg" xmlns:xlink="http://www.w3.org/1999/xlink">
	<desc>
			Created with Pixso.
	</desc>
	<defs>
		<filter id="filter_2_6_dd" x="0.000000" y="-0.127441" width="147.767578" height="26.371582" filterUnits="userSpaceOnUse" color-interpolation-filters="sRGB">
			<feFlood flood-opacity="0" result="BackgroundImageFix"/>
			<feColorMatrix in="SourceAlpha" type="matrix" values="0 0 0 0 0 0 0 0 0 0 0 0 0 0 0 0 0 0 127 0" result="hardAlpha"/>
			<feOffset dx="0" dy="4"/>
			<feGaussianBlur stdDeviation="1.33333"/>
			<feComposite in2="hardAlpha" operator="out" k2="-1" k3="1"/>
			<feColorMatrix type="matrix" values="0 0 0 0 0 0 0 0 0 0 0 0 0 0 0 0 0 0 0.25 0"/>
			<feBlend mode="normal" in2="BackgroundImageFix" result="effect_dropShadow_1"/>
			<feBlend mode="normal" in="SourceGraphic" in2="effect_dropShadow_1" result="shape"/>
		</filter>
	</defs>
	<g filter="url(#filter_2_6_dd)">
		<path id="Velocity" d="M75.24 12.8Q75.76 11.11 75.76 9.05Q75.76 6.25 74.83 4.19Q74.21 2.83 73.2 1.87Q72.69 1.39 72.08 1Q70.27 -0.13 67.62 -0.13Q64.85 -0.13 63.01 1.02Q62.3 1.46 61.72 2.05Q60.82 2.96 60.27 4.23Q59.37 6.29 59.37 9.02Q59.37 11.09 59.87 12.78Q60.38 14.48 61.4 15.7Q61.66 16.01 61.95 16.29Q62.81 17.09 63.96 17.58Q65.51 18.24 67.58 18.24Q69.6 18.24 71.12 17.58Q72.19 17.12 73.02 16.38Q73.37 16.07 73.68 15.71Q74.71 14.49 75.24 12.8ZM88.7 2.23Q89.88 1.72 91.36 1.72Q92.54 1.72 93.56 2.01Q94.58 2.3 95.43 2.69L96.26 0.93Q95.25 0.43 93.99 0.16Q92.74 -0.11 91.38 -0.11Q89.32 -0.11 87.73 0.56Q86.51 1.07 85.58 1.9Q85.3 2.16 85.04 2.44Q85.01 2.48 84.97 2.52Q83.93 3.71 83.38 5.34Q82.81 7.02 82.81 9.05Q82.81 11.85 83.72 13.92Q84.3 15.24 85.26 16.17Q85.8 16.7 86.46 17.11Q88.28 18.24 91 18.24Q92.48 18.24 93.55 18.06Q94.63 17.89 95.61 17.52L95.61 15.71Q94.6 16.02 93.55 16.22Q92.49 16.42 91.3 16.42Q89.2 16.42 87.8 15.52Q87.41 15.26 87.07 14.95Q86.2 14.15 85.7 12.96Q85 11.31 85 9.06Q85 7.36 85.44 6.01Q85.88 4.65 86.7 3.69Q87.05 3.28 87.47 2.96Q88.03 2.52 88.7 2.23ZM12.49 18L18.9 0.15L16.7 0.15L12.55 11.87Q12.3 12.59 12.09 13.24Q11.88 13.89 11.72 14.5Q11.56 15.1 11.44 15.66Q11.32 15.1 11.16 14.5Q11 13.91 10.8 13.26Q10.6 12.61 10.34 11.9L6.17 0.15L4 0.15L10.4 18L12.49 18ZM25.34 18L35.28 18L35.28 16.16L27.42 16.16L27.42 9.56L34.83 9.56L34.83 7.75L27.42 7.75L27.42 1.98L35.28 1.98L35.28 0.15L25.34 0.15L25.34 18ZM43.23 0.15L43.23 18L53.23 18L53.23 16.14L45.31 16.14L45.31 0.15L43.23 0.15ZM103.48 0.15L103.48 18L105.55 18L105.55 0.15L103.48 0.15ZM117.85 18L119.94 18L119.94 1.98L125.53 1.98L125.53 0.15L112.24 0.15L112.24 1.98L117.85 1.98L117.85 18ZM141.53 0.15L136.78 9.1L132.06 0.15L129.79 0.15L135.74 11.17L135.74 18L137.82 18L137.82 11.07L143.76 0.15L141.53 0.15ZM62.2 12.98Q61.55 11.32 61.55 9.05Q61.55 6.76 62.2 5.12Q62.7 3.89 63.58 3.08Q63.87 2.81 64.2 2.59Q65.54 1.7 67.62 1.7Q69.99 1.7 71.39 2.86Q71.8 3.2 72.13 3.65Q73.58 5.59 73.58 9.05Q73.58 11.32 72.94 12.98Q72.45 14.27 71.53 15.11Q71.27 15.34 70.98 15.54Q69.66 16.44 67.58 16.44Q65.52 16.44 64.18 15.54Q63.88 15.34 63.61 15.09Q62.7 14.26 62.2 12.98Z" fill="#69B9FF" fill-opacity="1.000000" fill-rule="evenodd"/>
	</g>
</svg>
